# Blender v2.62 (sub 0) OBJ File: ''
# www.blender.org
mtllib obj1.mtl
o Cube_Cube.001
v 0.595064 0.012340 -0.595064
v 0.595064 0.012340 0.595064
v -0.595064 0.012340 0.595064
v -0.595064 0.012340 -0.595064
v 0.261189 0.451226 -0.261188
v 0.261188 0.451226 0.261189
v -0.261189 0.451226 0.261188
v -0.261189 0.451226 -0.261188
v -0.374569 0.696687 -0.374569
v -0.374569 0.696687 0.374569
v 0.374569 0.696687 0.374569
v 0.374569 0.696687 -0.374569
v 0.374569 0.865442 -0.374569
v 0.374569 0.865442 0.374569
v -0.374569 0.865442 0.374569
v -0.374569 0.865442 -0.374569
v -0.572221 0.998400 -0.572221
v -0.572222 0.998400 0.572221
v 0.572221 0.998400 0.572222
v 0.572222 0.998400 -0.572221
v 0.518430 1.381933 -0.518430
v 0.518430 1.381933 0.518430
v -0.518430 1.381933 0.518430
v -0.518430 1.381933 -0.518430
vt 0.000000 0.000000
vt 1.000000 0.000000
vt 1.000000 1.000000
vt 0.000000 1.000000
vn 0.000000 -1.000000 0.000000
vn 0.795880 0.605454 0.000000
vn -0.000000 0.605454 0.795881
vn -0.795881 0.605454 -0.000000
vn 0.000000 0.605454 -0.795880
vn 0.000000 -0.419335 -0.907831
vn -0.907831 -0.419335 -0.000000
vn -0.000000 -0.419335 0.907831
vn 0.907831 -0.419335 0.000001
vn 1.000000 0.000000 0.000001
vn -0.000000 0.000000 1.000000
vn -1.000000 0.000000 -0.000000
vn 0.000000 0.000000 -1.000000
vn 0.000000 -0.829737 -0.558154
vn -0.558154 -0.829737 -0.000000
vn -0.000000 -0.829737 0.558154
vn 0.558154 -0.829737 0.000000
vn 0.990307 0.138893 0.000001
vn -0.000000 0.138893 0.990307
vn -0.990307 0.138893 -0.000000
vn 0.000000 0.138893 -0.990307
vn 0.000000 1.000000 0.000000
usemtl Matmat
s off
f 1/1/1 2/2/1 3/3/1 4/4/1
f 1/1/2 5/2/2 6/3/2 2/4/2
f 2/1/3 6/2/3 7/3/3 3/4/3
f 3/1/4 7/2/4 8/3/4 4/4/4
f 5/1/5 1/2/5 4/3/5 8/4/5
f 5/1/6 8/2/6 9/3/6 12/4/6
f 8/1/7 7/2/7 10/3/7 9/4/7
f 7/1/8 6/2/8 11/3/8 10/4/8
f 6/1/9 5/2/9 12/3/9 11/4/9
f 11/1/10 12/2/10 13/3/10 14/4/10
f 10/1/11 11/2/11 14/3/11 15/4/11
f 9/1/12 10/2/12 15/3/12 16/4/12
f 12/1/13 9/2/13 16/3/13 13/4/13
f 13/1/14 16/2/14 17/3/14 20/4/14
f 16/1/15 15/2/15 18/3/15 17/4/15
f 15/1/16 14/2/16 19/3/16 18/4/16
f 14/1/17 13/2/17 20/3/17 19/4/17
f 19/1/18 20/2/18 21/3/18 22/4/18
f 18/1/19 19/2/19 22/3/19 23/4/19
f 17/1/20 18/2/20 23/3/20 24/4/20
f 20/1/21 17/2/21 24/3/21 21/4/21
f 21/1/22 24/2/22 23/3/22 22/4/22
