# Blender v2.70 (sub 0) OBJ File: ''
# www.blender.org
mtllib obj2.mtl
o Cube
v 1.000000 0.036348 -1.000000
v 0.992518 0.036348 1.000000
v -0.992518 0.036348 1.000000
v -1.000000 0.036348 -1.000000
v 0.791720 0.545995 -0.791719
v 0.791719 0.545995 0.791720
v -0.791720 0.545995 0.791719
v -0.791719 0.545995 -0.791720
v 0.791720 1.619857 -0.791719
v 0.791719 1.619857 0.791720
v -0.791720 1.619857 0.791719
v -0.791719 1.619857 -0.791720
v 1.014683 2.000905 -1.014682
v 1.014681 2.000905 1.014683
v -1.014683 2.000905 1.014682
v -1.014682 2.000905 -1.014682
vt 0.000000 0.000000
vt 1.000000 0.000000
vt 1.000000 1.000000
vt 0.000000 1.000000
vn 0.000000 -1.000000 -0.000000
vn -1.000000 0.000000 -0.000000
vn 0.928047 0.372458 0.001938
vn -0.000000 0.378303 0.925682
vn -0.928047 0.372457 0.001938
vn 0.000000 0.378304 -0.925681
vn -0.863103 -0.505028 -0.000000
vn -0.000001 0.000000 1.000000
vn 0.000000 0.000000 -1.000000
vn 1.000000 0.000000 0.000001
vn 0.000000 1.000000 -0.000000
vn -0.000000 -0.505028 0.863103
vn 0.000000 -0.505028 -0.863103
vn 0.863103 -0.505028 0.000001
usemtl Material
s off
f 1/1/1 2/2/1 3/3/1 4/4/1
f 8/1/2 7/2/2 11/3/2 12/4/2
f 1/1/3 5/2/3 6/3/3 2/4/3
f 2/1/4 6/2/4 7/3/4 3/4/4
f 3/1/5 7/2/5 8/3/5 4/4/5
f 5/1/6 1/2/6 4/3/6 8/4/6
f 12/1/7 11/2/7 15/3/7 16/4/7
f 7/1/8 6/2/8 10/3/8 11/4/8
f 5/1/9 8/2/9 12/3/9 9/4/9
f 6/1/10 5/2/10 9/3/10 10/4/10
f 13/1/11 16/2/11 15/3/11 14/4/11
f 11/1/12 10/2/12 14/3/12 15/4/12
f 9/1/13 12/2/13 16/3/13 13/4/13
f 10/1/14 9/2/14 13/3/14 14/4/14
