# Blender v2.70 (sub 0) OBJ File: ''
# www.blender.org
mtllib obj3.mtl
o Cube
v 1.000000 0.041424 -1.000000
v 1.000000 0.041424 1.000000
v -1.000000 0.041424 1.000000
v -1.000000 0.041424 -1.000000
v 0.341145 0.740881 -0.341145
v 0.341145 0.740881 0.341146
v -0.341146 0.740881 0.341145
v -0.341145 0.740881 -0.341145
v 0.341145 2.381320 -0.341145
v 0.341145 2.381320 0.341146
v -0.341146 2.381320 0.341145
v -0.341145 2.381320 -0.341145
v 0.716067 3.077385 -0.716066
v 0.716066 3.077385 0.716067
v -0.716067 3.077385 0.716066
v -0.716066 3.077385 -0.716066
vt 0.000000 0.317642
vt 0.459005 0.317642
vt 0.459005 0.635284
vt 0.000000 0.635284
vt 0.459005 0.940455
vt 0.459005 0.832093
vt 0.824060 0.832093
vt 0.824060 0.940455
vt 0.459005 0.000000
vt 0.307796 0.104640
vt 0.151209 0.104640
vt 0.000000 0.000000
vt 0.151209 0.213002
vt 0.307796 0.213002
vt 1.000000 0.772547
vt 1.000000 1.000000
vt 1.000000 0.604640
vt 1.000000 0.713002
vt 0.634945 0.713002
vt 0.634945 0.604640
vt 0.459005 0.485549
vt 0.459005 0.377187
vt 0.824060 0.377187
vt 0.824060 0.485549
vt 0.459005 0.167907
vt 0.459005 0.059545
vt 0.824060 0.059545
vt 0.824060 0.167907
vt 0.130327 0.862736
vt 0.130327 0.635284
vt 0.459005 0.862736
vt 0.459005 0.772547
vt 0.459005 0.545095
vt 1.000000 0.317642
vt 1.000000 0.545095
vt 1.000000 0.000000
vt 1.000000 0.227453
vn 0.000000 -1.000000 -0.000000
vn -1.000000 0.000000 -0.000000
vn 0.727918 0.685664 0.000000
vn -0.000000 0.685664 0.727919
vn -0.727919 0.685664 -0.000000
vn 0.000000 0.685664 -0.727918
vn -0.880409 -0.474214 -0.000000
vn -0.000001 0.000000 1.000000
vn 0.000000 0.000000 -1.000000
vn 1.000000 0.000000 0.000001
vn 0.000000 1.000000 0.000000
vn -0.000000 -0.474215 0.880409
vn 0.000000 -0.474214 -0.880409
vn 0.880409 -0.474214 0.000000
usemtl Material
s off
f 1/1/1 2/2/1 3/3/1 4/4/1
f 8/5/2 7/6/2 11/7/2 12/8/2
f 1/9/3 5/10/3 6/11/3 2/12/3
f 2/12/4 6/11/4 7/13/4 3/1/4
f 3/1/5 7/13/5 8/14/5 4/2/5
f 5/10/6 1/9/6 4/2/6 8/14/6
f 12/8/7 11/7/7 15/15/7 16/16/7
f 7/17/8 6/18/8 10/19/8 11/20/8
f 5/21/9 8/22/9 12/23/9 9/24/9
f 6/25/10 5/26/10 9/27/10 10/28/10
f 13/29/11 16/30/11 15/3/11 14/31/11
f 11/20/12 10/19/12 14/32/12 15/33/12
f 9/24/13 12/23/13 16/34/13 13/35/13
f 10/28/14 9/27/14 13/36/14 14/37/14
